PathFileType	4	(X/Y/Z)	/Users/itak/Documents/Research/Walk-IL/dataset/trc/00147_00007.trc
DataRate	CameraRate	NumFrames	NumMarkers	Units	OrigDataRate	OrigDataStartFrame	OrigNumFrames
100.000000	100.000000	4	53	mm	100.000000	130	523
Frame#	Time	RPSI			LPSI			L3			STRN			T10			C7			CLAV			RBAK			LBAK			LSHO			LUPA			LAEL			LAOL			LWTS			LWPS			LFRA			LIFD			LHPS			LHTS			RSHO			RUPA			RAEL			RAOL			RWTS			RWPS			RFRA			RIFD			RHTS			RHPS			RBHD			LFHD			RFHD			LBHD			LHIP			RHIP			RASI			LASI			LKNE			LTHI			LANK			LTIP			LTOE			LMT1			LMT5			LHEE			RKNE			RTHI			RANK			RTIP			RTOE			RMT1			RMT5			RHEE			
		X1	Y1	Z1	X2	Y2	Z2	X3	Y3	Z3	X4	Y4	Z4	X5	Y5	Z5	X6	Y6	Z6	X7	Y7	Z7	X8	Y8	Z8	X9	Y9	Z9	X10	Y10	Z10	X11	Y11	Z11	X12	Y12	Z12	X13	Y13	Z13	X14	Y14	Z14	X15	Y15	Z15	X16	Y16	Z16	X17	Y17	Z17	X18	Y18	Z18	X19	Y19	Z19	X20	Y20	Z20	X21	Y21	Z21	X22	Y22	Z22	X23	Y23	Z23	X24	Y24	Z24	X25	Y25	Z25	X26	Y26	Z26	X27	Y27	Z27	X28	Y28	Z28	X29	Y29	Z29	X30	Y30	Z30	X31	Y31	Z31	X32	Y32	Z32	X33	Y33	Z33	X34	Y34	Z34	X35	Y35	Z35	X36	Y36	Z36	X37	Y37	Z37	X38	Y38	Z38	X39	Y39	Z39	X40	Y40	Z40	X41	Y41	Z41	X42	Y42	Z42	X43	Y43	Z43	X44	Y44	Z44	X45	Y45	Z45	X46	Y46	Z46	X47	Y47	Z47	X48	Y48	Z48	X49	Y49	Z49	X50	Y50	Z50	X51	Y51	Z51	X52	Y52	Z52	X53	Y53	Z53	

131	1.3	-845.7206420898438	1129.128173828125	1327.386474609375	-858.8905029296875	1130.10595703125	1193.331176757812	-858.217041015625	1167.970703125	1260.656005859375	-621.522216796875	1344.244506835938	1244.405883789062	-870.6262817382812	1322.461059570312	1270.29443359375	-806.5536499023438	1609.222045898438	1247.867431640625	-642.1430053710938	1482.227416992188	1238.892700195312	-873.79296875	1434.622680664062	1345.660766601562	-827.3912353515625	1588.74609375	1148.020751953125	-751.3837890625	1562.418212890625	1069.349975585938	-796.0029907226562	1432.557983398438	1007.45068359375	-807.1888427734375	1213.192260742188	988.1273803710938	-861.0145263671875	1206.516235351562	1058.833618164062	-707.3218383789062	953.9898681640625	1011.507751464844	-792.6221923828125	929.644775390625	1003.343017578125	-797.1702270507812	1096.154174804688	982.693359375	-688.8768310546875	761.5914306640625	1028.69140625	-765.5924072265625	855.0709228515625	998.1646118164062	-696.2348022460938	865.673095703125	998.5426025390625	-734.4070434570312	1585.274780273438	1422.640380859375	-750.5057983398438	1514.076538085938	1488.636840820312	-774.8978881835938	1222.002319335938	1521.43701171875	-798.6336059570312	1220.461669921875	1428.546752929688	-653.787109375	966.5875244140625	1488.841918945312	-722.2813110351562	957.3359375	1534.926879882812	-753.5418090820312	1146.675048828125	1534.817749023438	-648.2967529296875	770.416015625	1474.4560546875	-632.8755493164062	856.7208862304688	1492.781616210938	-693.017822265625	854.9578857421875	1533.916625976562	-739.9884033203125	1776.405029296875	1313.688110351562	-598.6664428710938	1824.581298828125	1151.193115234375	-576.3015747070312	1837.20263671875	1279.010131835938	-769.66064453125	1767.279907226562	1182.186279296875	-769.6929931640625	1038.91259765625	1076.0205078125	-718.575439453125	1024.347534179688	1439.146728515625	-634.731201171875	1091.216064453125	1383.728149414062	-662.7254638671875	1097.763305664062	1119.174438476562	-527.3936767578125	580.8408813476562	1105.564453125	-616.2006225585938	710.2261962890625	1079.078369140625	-759.954833984375	100.6718368530273	1090.422119140625	-680.828857421875	350.4081420898438	1076.125610351562	-541.4451293945312	66.88095855712891	1122.794921875	-609.3519897460938	70.26544189453125	1164.86279296875	-646.2271118164062	65.21681213378906	1055.90673828125	-819.571044921875	121.6851348876953	1158.131713867188	-751.3104248046875	531.704345703125	1389.441528320312	-707.3326416015625	807.85498046875	1426.163330078125	-904.5399780273438	32.55735778808594	1362.786865234375	-786.8646850585938	398.7207946777344	1398.845458984375	-676.1873168945312	52.65036773681641	1302.450317382812	-736.7772216796875	40.1070556640625	1264.475708007812	-770.3159790039062	43.83930206298828	1380.20166015625	-964.2645263671875	32.76548385620117	1316.159790039062	
132	1.31	-842.4943237304688	1128.88037109375	1327.6376953125	-855.5386352539062	1130.165893554688	1193.572265625	-854.9153442382812	1168.028076171875	1260.97705078125	-617.7905883789062	1343.921142578125	1244.923950195312	-866.9841918945312	1322.508666992188	1270.724243164062	-802.3753051757812	1609.138793945312	1248.23388671875	-638.1464233398438	1481.948608398438	1239.319091796875	-869.8698120117188	1434.643920898438	1346.08154296875	-823.2014770507812	1588.72119140625	1148.419067382812	-747.3013305664062	1562.252197265625	1069.7939453125	-792.4429931640625	1432.637573242188	1007.76416015625	-805.1434326171875	1213.389892578125	988.518310546875	-859.0795288085938	1207.211669921875	1059.214599609375	-708.0359497070312	953.0902099609375	1012.09765625	-793.6178588867188	929.721435546875	1003.642211914062	-796.3174438476562	1096.222778320312	983.1170654296875	-691.742919921875	760.535400390625	1029.639892578125	-767.3740844726562	854.7465209960938	998.6397094726562	-697.8930053710938	864.6040649414062	999.2890014648438	-730.3441162109375	1585.200805664062	1422.987548828125	-746.5429077148438	1514.068359375	1489.028564453125	-771.1931762695312	1222.10498046875	1522.1259765625	-794.7164306640625	1220.439819335938	1429.208984375	-650.34375	966.44580078125	1490.294067382812	-718.958740234375	957.42138671875	1536.201416015625	-749.9329223632812	1146.809204101562	1535.689697265625	-645.1541748046875	770.2491455078125	1476.369384765625	-629.598876953125	856.5550537109375	1494.545288085938	-689.9037475585938	854.9822387695312	1535.486206054688	-735.2678833007812	1776.4580078125	1313.846313476562	-594.4376831054688	1823.827758789062	1150.647338867188	-571.5706787109375	1836.7666015625	1278.346801757812	-765.45947265625	1767.039672851562	1182.505249023438	-766.5324096679688	1039.174926757812	1076.251831054688	-715.6796264648438	1023.757873535156	1439.35302734375	-631.606201171875	1090.707397460938	1384.146728515625	-659.3303833007812	1097.746704101562	1119.609985351562	-523.140625	581.8898315429688	1105.589721679688	-612.5542602539062	710.7748413085938	1079.033325195312	-743.4649658203125	96.09564208984375	1092.640014648438	-671.4759521484375	347.7243347167969	1077.264770507812	-523.018310546875	68.66639709472656	1122.725219726562	-590.87353515625	70.52803802490234	1165.500244140625	-628.8444213867188	64.64006805419922	1056.84130859375	-803.1771240234375	115.0246429443359	1160.856323242188	-749.9478759765625	531.2748413085938	1389.530151367188	-704.8623657226562	807.3364868164062	1426.12158203125	-904.5574951171875	32.5789794921875	1362.745727539062	-786.0045166015625	398.4086303710938	1398.899658203125	-676.2109375	52.41921615600586	1302.497192382812	-736.7528076171875	39.88949966430664	1264.578735351562	-770.2568969726562	43.78189086914062	1380.302368164062	-964.2538452148438	32.82366561889648	1316.093872070312	
133	1.32	-839.090087890625	1128.580810546875	1327.835083007812	-852.0234985351562	1130.165405273438	1193.759643554688	-851.4519653320312	1168.0224609375	1261.234497070312	-613.8908081054688	1343.532470703125	1245.39208984375	-863.16748046875	1322.490844726562	1271.10791015625	-798.0388793945312	1608.99365234375	1248.55859375	-633.9923095703125	1481.599609375	1239.7099609375	-865.789306640625	1434.608642578125	1346.464965820312	-818.8549194335938	1588.6357421875	1148.776123046875	-743.0728149414062	1562.019287109375	1070.205322265625	-788.705322265625	1432.621337890625	1008.070007324219	-802.9073486328125	1213.505981445312	988.943359375	-856.8621215820312	1207.817504882812	1059.693725585938	-708.7100219726562	952.0670166015625	1012.590698242188	-794.5756225585938	929.748779296875	1003.954406738281	-795.3265991210938	1096.226806640625	983.5557861328125	-694.7733764648438	759.3541870117188	1030.482788085938	-769.205078125	854.380859375	999.115478515625	-699.6090698242188	863.4180297851562	999.9075927734375	-726.1214599609375	1585.068725585938	1423.295776367188	-742.4332885742188	1514.015502929688	1489.388549804688	-767.5016479492188	1222.157104492188	1522.77001953125	-790.7801513671875	1220.387451171875	1429.830078125	-646.7369995117188	966.3466796875	1491.7041015625	-715.5	957.4712524414062	1537.37646484375	-746.3075561523438	1146.8857421875	1536.515991210938	-641.6557006835938	770.1363525390625	1478.16015625	-626.0462646484375	856.4522705078125	1496.238403320312	-686.5547485351562	854.9849243164062	1536.922119140625	-730.4391479492188	1776.440551757812	1313.96533203125	-590.1474609375	1823.041259765625	1150.059204101562	-566.7647094726562	1836.311157226562	1277.640625	-761.1471557617188	1766.709838867188	1182.788940429688	-763.1800537109375	1039.348999023438	1076.429077148438	-712.6361083984375	1023.117492675781	1439.490112304688	-628.304443359375	1090.142578125	1384.499389648438	-655.769775390625	1097.670532226562	1119.9970703125	-519.0880126953125	582.6734008789062	1105.6181640625	-608.9690551757812	711.0910034179688	1078.918701171875	-726.3046264648438	91.31533050537109	1094.777587890625	-661.882568359375	344.7266845703125	1078.312377929688	-504.2757568359375	70.53006744384766	1122.761840820312	-571.9942626953125	70.74507141113281	1166.197143554688	-610.9327392578125	63.88713455200195	1057.82373046875	-786.1142578125	108.1593627929688	1163.438842773438	-748.4204711914062	530.8017578125	1389.556396484375	-702.2257690429688	806.7681884765625	1426.01171875	-904.5745849609375	32.60472869873047	1362.697265625	-785.0098266601562	398.0635681152344	1398.889282226562	-676.1945190429688	52.18809127807617	1302.547973632812	-736.69091796875	39.69942474365234	1264.6787109375	-770.1931762695312	43.72815322875977	1380.3955078125	-964.239990234375	32.88838195800781	1316.0185546875	
134	1.33	-835.49755859375	1128.213745117188	1327.979736328125	-848.3451538085938	1130.09423828125	1193.891723632812	-847.825439453125	1167.946899414062	1261.429321289062	-609.8297729492188	1343.064575195312	1245.803100585938	-859.1835327148438	1322.401000976562	1271.443115234375	-793.5399169921875	1608.7763671875	1248.838989257812	-629.6796875	1481.168701171875	1240.054809570312	-861.5572509765625	1434.509887695312	1346.807373046875	-814.3533325195312	1588.47998046875	1149.091918945312	-738.7079467773438	1561.704223632812	1070.57275390625	-784.8136596679688	1432.490844726562	1008.374145507812	-800.4957275390625	1213.516235351562	989.41259765625	-854.354736328125	1208.305297851562	1060.292724609375	-709.3286743164062	950.9168090820312	1012.966125488281	-795.4829711914062	929.71533203125	1004.297241210938	-794.21044921875	1096.152221679688	984.0181274414062	-697.9362182617188	758.0413208007812	1031.16650390625	-771.0679321289062	853.9688720703125	999.5855712890625	-701.36669921875	862.1170654296875	1000.365966796875	-721.72705078125	1584.860595703125	1423.563354492188	-738.1658325195312	1513.89892578125	1489.712036132812	-763.802734375	1222.144775390625	1523.390258789062	-786.8309326171875	1220.287109375	1430.439208984375	-642.9675903320312	966.2719116210938	1493.0478515625	-711.8885498046875	957.4655151367188	1538.453369140625	-742.6427001953125	1146.886474609375	1537.308715820312	-637.8103637695312	770.056884765625	1479.7919921875	-622.2236938476562	856.3927001953125	1497.822509765625	-682.9540405273438	854.9461669921875	1538.21533203125	-725.4965209960938	1776.332885742188	1314.048217773438	-585.7889404296875	1822.218872070312	1149.431884765625	-561.8806762695312	1835.828247070312	1276.894775390625	-756.7234497070312	1766.274658203125	1183.036987304688	-759.6151123046875	1039.421264648438	1076.5458984375	-709.4147338867188	1022.430358886719	1439.558349609375	-624.8212280273438	1089.513916015625	1384.782592773438	-652.0497436523438	1097.515747070312	1120.329223632812	-515.2003173828125	583.1958618164062	1105.633911132812	-605.4171142578125	711.1767578125	1078.72021484375	-708.540283203125	86.45406341552734	1096.820922851562	-652.0726318359375	341.5007934570312	1079.276489257812	-485.3190002441406	72.55715179443359	1122.975830078125	-552.8367919921875	71.01737976074219	1166.994140625	-592.5650024414062	63.06195449829102	1058.879272460938	-768.4494018554688	101.2268753051758	1165.870483398438	-746.7330322265625	530.2853393554688	1389.529418945312	-699.4154052734375	806.1494140625	1425.82958984375	-904.5900268554688	32.63478469848633	1362.643432617188	-783.8910522460938	397.6858215332031	1398.817504882812	-676.1397094726562	51.96389007568359	1302.608520507812	-736.6040649414062	39.52826690673828	1264.7705078125	-770.1227416992188	43.67806625366211	1380.482788085938	-964.22216796875	32.95674896240234	1315.935180664062	
